<svg width="24" height="24" viewBox="0 0 24 24" fill="none" xmlns="http://www.w3.org/2000/svg">
<path d="M12.0045 22.0336C11.7377 22.0336 11.4833 21.9836 11.2412 21.8836C10.9991 21.7835 10.7783 21.6418 10.5789 21.4584L2.55081 13.4303C2.3674 13.2302 2.22568 13.0091 2.12564 12.767C2.02561 12.5249 1.97559 12.2708 1.97559 12.0047C1.97559 11.7386 2.02561 11.4802 2.12564 11.2294C2.22568 10.9787 2.3674 10.7619 2.55081 10.5792L10.5789 2.55106C10.779 2.35098 11.0001 2.20493 11.2422 2.11289C11.4843 2.02085 11.7384 1.97517 12.0045 1.97584C12.2706 1.9765 12.529 2.02252 12.7798 2.11389C13.0306 2.20526 13.2473 2.35098 13.43 2.55106L21.4582 10.5792C21.6582 10.7626 21.8043 10.9793 21.8963 11.2294C21.9884 11.4795 22.0341 11.738 22.0334 12.0047C22.0327 12.2715 21.987 12.5259 21.8963 12.768C21.8056 13.0101 21.6596 13.2309 21.4582 13.4303L13.43 21.4584C13.2466 21.6418 13.0299 21.7835 12.7798 21.8836C12.5297 21.9836 12.2713 22.0336 12.0045 22.0336ZM11.0041 13.0051H13.0049V7.00279H11.0041V13.0051ZM12.0045 16.0063C12.2879 16.0063 12.5257 15.9103 12.7178 15.7182C12.9098 15.5261 13.0055 15.2887 13.0049 15.0059C13.0042 14.7231 12.9082 14.4857 12.7168 14.2936C12.5254 14.1016 12.2879 14.0055 12.0045 14.0055C11.721 14.0055 11.4836 14.1016 11.2922 14.2936C11.1008 14.4857 11.0048 14.7231 11.0041 15.0059C11.0034 15.2887 11.0995 15.5264 11.2922 15.7192C11.485 15.9119 11.7224 16.0076 12.0045 16.0063Z" fill="white"/>
</svg>
